<svg xmlns="http://www.w3.org/2000/svg" width="1280" height="1280"><path d="M667.143 29.25c1.253 1.788 11.725 15.85 23.271 31.25C754.155 145.517 779 179.346 779 181.115c0 1.087-1.136 3.112-2.525 4.501l-2.524 2.524-20.226-.641c-11.124-.352-23.686-1.077-27.916-1.61-20.365-2.564-38.693-13.142-52.49-30.291-11.081-13.775-21.468-20.821-35.419-24.029-3.52-.809-21.7-2.84-40.4-4.513-18.7-1.674-35.718-3.316-37.817-3.649l-3.817-.605 2.466 4.849c8.021 15.767 44.005 81.979 46.616 85.773 8.578 12.469 21.864 23.701 36.116 30.535 11.844 5.679 20.8 8.08 32.436 8.697 11.204.594 579.585-2.407 580.241-3.064 1.008-1.008-3.18-13.859-7.25-22.245-12.418-25.592-36.207-43.846-63.491-48.719-4.675-.834-20.875-2.229-36-3.1-125.304-7.207-128.217-7.405-134.036-9.101-3.005-.876-7.714-2.852-10.464-4.391-2.75-1.539-34.025-22.687-69.5-46.996-35.475-24.308-68.879-46.657-74.231-49.664-20.328-11.421-44.405-20.153-68.706-24.917C780.877 38.658 671.959 25.996 665.682 26c-.45 0 .207 1.462 1.461 3.25m-158.079 97.282c-96.163 19.726-187.94 62.388-263.802 122.628-26.327 20.905-62.86 56.387-84.81 82.37C100.371 402.651 55.545 494.524 37.514 583.5c-7.795 38.468-10.739 68.403-10.816 110-.07 37.994 1.975 61.807 8.33 96.991 16.553 91.648 57.259 179.894 116.186 251.88 68.127 83.227 156.084 143.893 260.382 179.595 90.539 30.992 182.129 39.217 277.404 24.914 58.138-8.729 116.997-27.405 170.5-54.1 15.252-7.61 35.5-18.626 35.5-19.314 0-.178-6.677 2.758-14.838 6.524-102.471 47.289-214.198 63.615-324.662 47.442-87.13-12.756-175.7-49.829-247-103.387-82.294-61.817-142.218-144.025-174.925-239.977-23.42-68.706-30.744-141.388-21.538-213.725 10.419-81.861 41.254-156.295 93.974-226.845C238.994 399.36 286.383 356.365 336 325.562c65.898-40.909 139.533-65.644 219-73.563 5.775-.575 21.207-1.329 34.293-1.675l23.792-.629-3.792-3.008c-6.88-5.456-16.414-16.058-21.749-24.185-2.889-4.401-16.392-28.814-30.006-54.252-13.615-25.437-25.268-46.22-25.896-46.182-.628.037-10.788 2.046-22.578 4.464m91.186 191.162c-6.281.294-8.25.726-8.25 1.808 0 .818-1.59 1.795-3.75 2.304-2.062.485-11.4 2.727-20.75 4.982-9.35 2.256-18.8 4.432-21 4.838-3.521.648-3.705.809-1.536 1.342 2.426.596 2.408.639-1.205 2.872-2.862 1.769-4.465 2.118-7.287 1.589-3.125-.586-3.573-.435-3.295 1.112.238 1.316-.604 2.036-3.177 2.715-1.925.508-4.067 1.392-4.759 1.964-.693.572-3.393 1.154-6 1.294-2.608.14-7.146.753-10.086 1.362-6.857 1.422-17.197 6.851-16.501 8.665.343.893-.83 1.699-3.529 2.425-2.59.698-3.865 1.547-3.551 2.366.316.823-2.172 2.448-6.98 4.561-5.449 2.395-8.841 4.732-12.532 8.635-5.095 5.387-6.376 8.472-3.517 8.472 1.225 0 1.409.727.889 3.5-.586 3.125-.424 3.5 1.51 3.5 1.191 0 4.729-1.727 7.861-3.838 10.202-6.876 14.786-9.162 18.373-9.162 1.926 0 6.162-1.297 9.412-2.882 12.374-6.033 17.76-8.118 20.972-8.118 1.826 0 3.603-.457 3.948-1.016.346-.559 1.069-.744 1.608-.411.605.374.483 1.208-.319 2.182-1.15 1.395-.954 1.489 1.701.81 1.65-.422 4.575-.932 6.5-1.133 1.925-.201 8.397-1.746 14.383-3.433 9.836-2.773 11.047-2.92 12.579-1.533 2.215 2.004 9.953 1.989 18.689-.037 3.977-.923 8.236-1.299 10.312-.912l3.537.659-3-2.607c-2.51-2.181-2.755-2.765-1.5-3.573 1.663-1.07 10-1.368 10-.356 0 .352-.788 1.288-1.75 2.081-1.656 1.365-1.652 1.411.082.861 1.007-.32 2.92-.582 4.25-.582 2.454 0 4.596-1.657 7.832-6.061 1.089-1.48 1.972-1.976 2.249-1.262.335.866 1.245.902 3.435.139 2.677-.933 2.807-1.165 1.283-2.279-1.523-1.114-1.409-1.313 1.116-1.947 1.547-.388 3.081-.317 3.408.158.879 1.276 8.404 1.561 7.618.289-.402-.651.87-1.037 3.418-1.037 2.726 0 4.716-.657 6.059-2 1.1-1.1 3.146-2 4.548-2 1.433 0 3.561-1.094 4.864-2.5 2.352-2.537 5.012-3.241 6.03-1.594.308.498 1.454.672 2.548.386 1.093-.285 1.741-.918 1.44-1.406-.302-.487-.045-.886.57-.886s.871-.4.569-.888c-.657-1.064 4.655-1.924 18.944-3.068 10.576-.847 14.916-1.954 8.404-2.144-3.169-.092-3.236-.157-.917-.9 1.375-.44 1.825-.852 1-.916-1.191-.091-1.229-.286-.185-.949.828-.525-1.023-1.097-5-1.544-11.704-1.318-22.329-3.253-20.315-3.7 1.1-.244-1.15-.432-5-.418-3.85.015-16.225-.242-27.5-.57-11.275-.328-24.212-.422-28.75-.209M518 325.728c-4.125.854-7.787 1.997-8.138 2.54-.351.544-1.251.633-2 .2-.749-.434-1.022-.414-.607.043 1.279 1.409-49.003 19.318-51.018 18.172-.405-.231-2.312.162-4.237.873-1.925.71-2.911 1.326-2.191 1.368 2.279.132.224 2.026-5.13 4.727-6.092 3.074-12.047 8.003-10.685 8.845.525.325 3.257-1.229 6.07-3.453 5.707-4.51 8.556-5.396 4.924-1.53l-2.361 2.513 3.392-1.182c1.865-.651 4.937-2.231 6.826-3.513 1.889-1.282 3.977-2.331 4.64-2.331.663 0 1.974-.849 2.913-1.887 2.08-2.298 13.199-7.415 14.887-6.85.668.224-1.26 1.876-4.285 3.671-3.025 1.795-4.6 2.941-3.5 2.548 1.1-.393 4.925-1.301 8.5-2.017 8.005-1.602 10.15-2.414 9.435-3.57-.304-.492.116-.895.933-.895.818 0 2.324-1.064 3.347-2.365 1.024-1.301 2.856-2.682 4.073-3.068 1.217-.386 2.212-1.101 2.212-1.589s1.688-1.165 3.75-1.505c2.063-.339 4.65-.972 5.75-1.406 1.1-.435 3.8-1.358 6-2.052s6.452-2.406 9.45-3.806c2.997-1.399 6.822-2.872 8.5-3.274l3.05-.73-3.5-.015c-1.925-.007-6.875.685-11 1.538M692.5 325c1.65.42 4.125.763 5.5.763 2.23 0 2.176-.082-.5-.763-1.65-.42-4.125-.763-5.5-.763-2.23 0-2.176.082.5.763m-168 14c-.792 1.282 3.517 1.282 5.5 0 1.141-.738.737-.973-1.691-.985-1.755-.008-3.469.435-3.809.985m192 1.669c.55.457 1 1.506 1 2.331s.9 1.546 2 1.602c3.827.195 4.5.404 4.5 1.398 0 .55-1.237 1.053-2.75 1.118l-2.75.119 3 .653c1.816.395 2.542.941 1.84 1.384-.638.403-1.988.443-3 .09-1.577-.55-1.526-.312.36 1.669l2.2 2.312 2.017-2.423c1.109-1.332 2.031-2.984 2.05-3.672.018-.687.383-1.25.811-1.25 1.262 0 4.328 4.019 3.763 4.933-.462.749 2.526 2.017 4.838 2.053.484.008-.866-1.786-3-3.985-2.133-2.2-4.411-4-5.062-4-.65-.001-1.468-.901-1.817-2.001-.717-2.259-2.082-2.62-2.841-.75-.382.943-.712.963-1.343.079-.46-.644-2.182-1.468-3.826-1.831-1.645-.363-2.54-.286-1.99.171m13.781 1.674c.254 1.34 2.454 2.486 4.969 2.587 2.506.1 2.162-1.657-.5-2.552-3.704-1.245-4.699-1.252-4.469-.035m-316.798 22.855c-7.69 3.885-19.128 10.434-25.417 14.553-6.288 4.119-14.388 9.082-18 11.03-3.611 1.948-12.239 7.744-19.172 12.88-12.393 9.181-15.486 11.027-12.766 7.62.754-.946-1.518.516-5.051 3.25-7.602 5.882-35.609 32.692-46.579 44.591-12.616 13.683-39.258 49.806-44.899 60.878-.42.825 1.094-.525 3.365-3 7.673-8.363 13.516-15.832 17.939-22.932 2.422-3.887 4.981-7.068 5.687-7.068.706 0 4.096-3.141 7.533-6.98 3.437-3.84 6.428-6.802 6.647-6.584 1.179 1.179 6.544-2.637 10.467-7.444 4.066-4.984 11.146-9.992 14.125-9.992.646 0 2.867-1.151 4.937-2.557 2.415-1.641 4.47-2.334 5.732-1.933 1.864.591 2.822 3.398 1.219 3.571-.413.045-1.992.172-3.511.284-1.531.112-3.981 1.473-5.5 3.056-2.202 2.294-2.347 2.697-.739 2.054 1.1-.44 4.727-1.761 8.06-2.935 6.52-2.297 17.013-8.3 16.102-9.212-.306-.306-1.766.395-3.244 1.558-3.604 2.835-6.419 2.775-6.414-.136.007-4.22 5.245-10.848 11.919-15.08 3.806-2.413 5.089-4.67 2.655-4.67-2.144 0-9.799 3.777-16.937 8.356-7.07 4.536-8.791 4.186-1.961-.399 2.651-1.779 5.279-3.735 5.84-4.346 1.075-1.171 4.312-3.151 8.48-5.188a574.982 574.982 0 006.695-3.355c4.46-2.269 7.534-2.098 12.392.687 2.361 1.354 3.014 1.287 7.5-.77 2.702-1.239 7.263-2.602 10.135-3.029 3.851-.572 6.422-1.76 9.796-4.524 2.516-2.062 4.364-4.298 4.106-4.968-.257-.671.037-1.725.654-2.342 1.495-1.495-.903-1.497-5.18-.006-1.76.613-3.482.834-3.826.489-1.242-1.242 3.327-3.449 8.472-4.092 5.053-.632 5.256-.775 5.256-3.717 0-4.147 3.513-9.541 7.349-11.283 1.733-.787 6.751-4.867 11.151-9.066 7.668-7.319 7.817-7.545 3.597-5.443-5.267 2.623-12.262 5.164-12.782 4.644-.961-.96 5.873-6.616 12.102-10.017 3.804-2.077 8.079-4.844 9.5-6.149 1.421-1.304 3.708-3.258 5.083-4.341 5.262-4.144.952-2.747-12.517 4.057M565.5 376.456c-1.1.865-1.55 1.513-1 1.44 2.528-.336 3.5.258 3.5 2.138 0 1.863-.444 1.985-5.25 1.446-4.897-.55-5.087-.493-2.822.846l2.428 1.435-2.178 1.36c-3.082 1.925-2.731 2.61 1.724 3.362 2.763.467 4.058 1.255 4.435 2.7.581 2.22 1.906 2.206 13.663-.141 3.025-.603 7.343-.843 9.596-.532 3.059.423 4.435.158 5.436-1.048 1.124-1.355 1.109-1.764-.096-2.546-1.178-.764-.988-1.284 1.064-2.901 2.807-2.212 2.789-2.221-5.5-2.64-16.778-.85-17.812-1.089-15.698-3.637.821-.988.672-1.346-.607-1.459-.932-.083-2.82-.43-4.195-.773a5.227 5.227 0 00-4.5.95m248.53.008c-.691.833-1.623 1.287-2.071 1.01-.448-.276-1.084.344-1.412 1.379-.665 2.095.749 6.594 2.391 7.609.584.361 1.062 1.106 1.062 1.656 0 .55-.45.722-1 .382-.55-.34-1-.25-1 .2 0 .451.946 1.41 2.103 2.132 1.492.932 1.966 2.025 1.634 3.764-.258 1.349-.048 2.712.465 3.029.514.318.679 1.243.366 2.057-.744 1.941 1.406 4.739 3.932 5.117 1.1.165 3.219 1.613 4.708 3.219 2.236 2.41 8.533 5.982 10.547 5.982.281 0-2.924-3.595-7.122-7.989-4.457-4.664-7.633-8.847-7.633-10.05 0-1.133-.764-3.5-1.698-5.261-.934-1.76-1.588-3.948-1.453-4.861.136-.914-.205-1.941-.757-2.282-.553-.342-.752-1.279-.444-2.083.309-.805.964-1.214 1.457-.909 1.699 1.05.89-2.259-.962-3.935-1.651-1.494-1.995-1.513-3.113-.166m34.512 7.226c1.123.995 2.655 3.036 3.405 4.535.75 1.498 3.994 4.79 7.208 7.316 5.988 4.704 7.121 6.459 4.171 6.459-2.383 0 1.609 4.099 8.35 8.573 4.96 3.292 7.237 5.427 5.787 5.427-.36 0-1.996-.955-3.636-2.123-2.008-1.43-3.311-1.793-3.991-1.113-.681.681-.151 1.619 1.623 2.873a107.287 107.287 0 014.838 3.662c2.139 1.747 2.101 1.751-1.297.14-1.925-.913-5.187-3.276-7.25-5.252-2.062-1.976-3.75-3.106-3.75-2.512 0 .595 4.783 5.973 10.628 11.953 5.846 5.98 10.32 10.31 9.941 9.622-.378-.687-.406-1.25-.062-1.25 1.646 0 4.45 2.255 7.063 5.68l2.88 3.777-3.225-2.297c-1.774-1.263-3.224-1.928-3.222-1.478.002.45 1.801 3.518 3.997 6.818 2.301 3.457 3.995 7.201 3.997 8.833.002 1.559-.334 2.649-.747 2.423-.413-.226-2.212-1.037-4-1.803-3.142-1.345-4.8-4.485-1.75-3.315 1.832.703 2.001-1.833.331-4.953-3.167-5.918-32.493-38.451-36.581-40.582-3.182-1.659-2.943.225.605 4.753 1.57 2.004 2.678 4.144 2.463 4.755-.216.611.74 1.852 2.124 2.759 1.384.907 3.199 2.968 4.032 4.581.834 1.612 4.102 5.038 7.262 7.612 12.357 10.066 9.996 11.571-3.33 2.123-4.899-3.472-10.706-7.128-12.906-8.124-2.2-.996-5.35-2.8-7-4.008-3.891-2.848-5.5-3.784-5.5-3.201 0 .259 2.871 2.52 6.379 5.024 6.937 4.949 7.982 6.472 6.743 9.822-.812 2.194-.819 2.193-2.57-.48-1.474-2.249-2.078-2.508-3.756-1.61-1.1.589-2.855.847-3.9.574-1.044-.273-1.647-.088-1.338.41.308.499-.162.907-1.045.907-.884 0-2.336-1.271-3.227-2.825-1.601-2.789-1.674-2.808-5.704-1.445-8.184 2.767-9.554 3.599-8.338 5.064.852 1.027.777 1.58-.308 2.267-2.576 1.63-4.39.997-7.186-2.508-3.337-4.182-3.429-4.954-.5-4.23 1.714.424 1.207-.383-2.129-3.383-2.408-2.167-5.22-3.94-6.25-3.94-1.785 0-1.779.092.129 2 1.1 1.1 2 2.948 2 4.106s1.125 3.442 2.5 5.076c2.724 3.237 3.313 6.818 1.122 6.818-.757 0-1.937-.675-2.622-1.5-1.58-1.904-2.462-1.882-7.135.179l-3.806 1.68 2.152 3.482 2.151 3.481-3.414-.682c-1.879-.376-5.141-1.826-7.251-3.222-2.11-1.396-4.221-2.399-4.691-2.228-1.048.38 1.898 3.917 4.483 5.381 3.134 1.775 2.973 3.429-.333 3.429-2.429 0-3.748-.958-6.833-4.963-2.103-2.729-4.611-5.235-5.573-5.567-1.019-.352-1.75-1.617-1.75-3.027 0-1.508-1.914-4.536-5.074-8.025-2.791-3.082-4.829-5.848-4.53-6.147.299-.3 3.402 1.317 6.894 3.592 3.492 2.275 6.898 4.137 7.57 4.137.671 0 2.984.9 5.14 2 4.827 2.462 8.131 2.538 10.884.25 1.85-1.538 1.952-2.053.843-4.25-1.413-2.8-19.125-15-21.777-15-.938 0-2.274-.685-2.969-1.523-.729-.878-2.049-1.273-3.121-.932-1.366.433-2.12-.098-2.844-2.003-.542-1.427-1.78-2.84-2.751-3.141-4.331-1.343-8.654-3.713-7.515-4.121 2.056-.735 1.429-2.136-1.672-3.739-2.245-1.162-3.037-1.226-3.423-.276-.377.926-.755.872-1.513-.217-.555-.799-.788-1.811-.517-2.25.994-1.609-1.946-.743-3.233.952-.896 1.181-1.339 1.32-1.36.429-.042-1.739-2.529-4.179-4.261-4.179-.754 0-1.941.563-2.638 1.25-1.016 1.002-1.525.902-2.561-.5-1.4-1.896-4.572-2.394-4.572-.719 0 .568.675 1.291 1.5 1.607.825.317 1.5 1.03 1.5 1.586 0 .982-1.679.753-5.25-.718-1.273-.524-1.75-.245-1.75 1.023 0 1.432-.471 1.273-2.636-.893-3.135-3.134-4.364-3.33-4.364-.695 0 2.233-2.188 3.996-2.774 2.236-.216-.647-1.06-1.177-1.877-1.177-1.062 0-1.29.609-.803 2.146.605 1.906.416 2.057-1.682 1.345-3.31-1.123-9.312-.913-11.513.403-1.482.885-.775 1.056 3.542.856 3.606-.167 5.54.164 5.834 1 .276.786-.498 1.25-2.087 1.25-1.39 0-3.115.79-3.833 1.755-.719.965-2.98 2.634-5.024 3.709-2.044 1.076-4.604 3.156-5.689 4.623-1.241 1.678-3.361 2.928-5.714 3.37-2.614.49-3.33.956-2.375 1.546 1.086.671 1.115 1.147.144 2.318-1.698 2.045-10.299 4.714-12.955 4.019-1.207-.315-2.194-.122-2.194.43s-2.121 1.321-4.714 1.71c-2.593.389-5.618 1.34-6.723 2.113-1.104.774-2.778 1.407-3.718 1.407-.941 0-1.981.855-2.313 1.899-.331 1.044-1.794 3.09-3.25 4.546-2.637 2.637-2.639 2.649-.464 3.218 2.855.746 2.753 1.743-.435 4.251-2.195 1.726-2.356 2.159-1 2.679 2.037.782 2.134 4.407.117 4.407-.825 0-1.5.45-1.5 1s.653 1 1.45 1c.798 0 1.877.762 2.398 1.693.711 1.271 2.246 1.672 6.17 1.613 2.873-.043 5.512-.545 5.864-1.115.352-.57 2.577-1.703 4.944-2.519 4.225-1.456 4.323-1.439 5.402.929 1.093 2.4 5.457 4.11 19.06 7.472 2.634.651 4.587 1.385 4.341 1.632-.358.357-14.449-3.04-21.629-5.214-1.143-.347-1.536.493-1.65 3.527-.083 2.19.255 3.982.75 3.982s.9 1.581.9 3.514c0 1.932.551 4.396 1.225 5.475.967 1.547.967 2.219 0 3.186-2.075 2.075-1.371 3.546 2.021 4.224 2.283.457 3.561.218 4.31-.806.709-.971 2.637-1.395 5.79-1.274 2.671.102 5.037-.319 5.44-.968.393-.632 1.839-1.339 3.214-1.572l2.5-.422-2.75-1.154c-2.661-1.116-3.576-2.685-1.967-3.37.431-.183 1.749-1.993 2.931-4.023 1.521-2.614 1.803-3.855.967-4.256-.65-.311.089-.322 1.641-.023 1.892.364 3.967-.164 6.296-1.604 3.77-2.33 3.993-4.241.554-4.747-1.529-.224-2.172-1.021-2.172-2.691 0-1.304-.403-2.62-.895-2.924-1.567-.969.888-8.936 3.64-11.815 1.446-1.512 3.463-2.75 4.482-2.75 1.019 0 3.617-.9 5.773-2 2.156-1.1 4.838-2 5.96-2 1.415 0 2.04-.653 2.04-2.132 0-2.302 3.663-8.868 4.947-8.868.431 0 1.856.823 3.168 1.83 1.312 1.006 3.173 2.117 4.135 2.468 4.69 1.713.314 8.351-8.425 12.779-5.928 3.004-6.31 3.573-7.348 10.949-.63 4.476-.581 4.573 4.394 8.768 4.894 4.127 5.217 4.239 11.83 4.117 7.991-.147 14.202.842 16.299 2.597.825.691 2.513 1.564 3.75 1.941 3.639 1.109 2.689 2.884-1.204 2.252-2.522-.409-4.117-.04-5.908 1.369-3.045 2.395-3.801 2.398-8.449.026-3.805-1.941-10.575-3.044-11.711-1.908-.346.346.193.881 1.197 1.188 4.758 1.456 48.046 12.669 51.22 13.268 1.983.374 3.13.841 2.548 1.037-1.923.649-57.632-13.542-59.384-15.127-2.171-1.966-3.163-1.988-2.421-.054.4 1.041-.069 1.5-1.531 1.5-2.826 0-2.674 1.784.267 3.124 1.709.779 2.949.773 4.434-.021 2.817-1.508 2.765-1.531 5.11 2.265 2.7 4.368 2.64 4.871-.828 6.92-2.962 1.749-6.064 1.423-6.122-.645-.063-2.261-2.697-4.684-4.388-4.035-1.467.563-7.679 12.444-7.435 14.222.252 1.835-.424 1.951-3.613.619-4.934-2.061-5.855-1.872-5.121 1.051.898 3.58-1.671 3.261-4.677-.581l-2.411-3.08-5.845 1.08c-3.215.595-8.013 1.081-10.662 1.081-4.4 0-4.816-.205-4.816-2.37 0-2.083-.574-2.436-4.75-2.92-2.612-.303-5.177-.137-5.7.37-1.636 1.585-3.732 1.015-6.247-1.698-4.351-4.694-.61-7.187 5.512-3.673 3.533 2.027 5.391 1.008 7.1-3.896l1.071-3.072-4.454.502c-5.216.588-6.118.063-3.969-2.313 1.039-1.148 1.208-1.953.502-2.39-.586-.362-1.065-2.383-1.065-4.491v-3.833l-3.682 1.877c-2.024 1.032-3.937 2.221-4.25 2.642-.312.421-1.468 1.265-2.568 1.875-1.467.815-2.053 2.281-2.2 5.5-.359 7.881-1.479 13.89-2.59 13.89-.6 0-3.655-.53-6.791-1.178-4.929-1.018-6.328-.938-10.331.591-3.685 1.407-5.259 1.549-7.713.693-2.91-1.014-3.052-.949-2.521 1.168 1.023 4.077.351 4.416-12.634 6.372-2.79.421-4.15 1.284-5.191 3.297-1.181 2.284-1.916 2.654-4.521 2.271-2.138-.313-3.488.061-4.319 1.197-1.035 1.415-1.71 1.481-4.699.46-1.919-.656-3.85-1.795-4.29-2.532-1.145-1.917-2.856-1.653-2.658.411.245 2.549-1.113 6.25-2.293 6.25-2.199 0-8.749-2.364-8.749-3.158 0-.463-1.8-.842-4-.842-4.639 0-5.075 1.169-1.381 3.703 1.441.988 3.734 2.922 5.096 4.296 2.191 2.211 2.402 3.061 1.831 7.367-.493 3.715-.271 5.28.938 6.616 1.463 1.617 1.201 2.321-3.444 9.266-5.971 8.927-8.071 9.784-15.169 6.186-2.576-1.305-4.839-2.764-5.027-3.242-.3-.758-14.633-6.029-17.344-6.378-.55-.071-2.863-.058-5.141.028-3.861.147-4.173.377-4.633 3.408-1.02 6.726-5.563 16.998-9.133 20.655-2.553 2.614-3.593 4.573-3.593 6.765 0 1.697-.626 3.605-1.392 4.24-.765.636-1.622 2.035-1.903 3.11-.415 1.586.226 2.154 3.392 3.006 2.147.578 3.903 1.484 3.903 2.013 0 .528 1.047.961 2.326.961 2.463 0 6.238 3.395 6.824 6.138.312 1.46 1.649 1.313 12.35-1.362 6.6-1.65 14.925-3.062 18.5-3.138 8.078-.172 9.237-.852 8.469-4.966-.501-2.688-.075-3.672 2.791-6.445 3.54-3.425 10.17-5.208 19.41-5.221 4.115-.006 4.191-.072 5.833-5.016 2.503-7.535 5.941-8.331 13.378-3.096 4.611 3.246 7.069 3.537 9.333 1.106 1.522-1.632 2.835-2.069 5.163-1.717 1.718.261 4.293-.124 5.724-.853 3.573-1.823 6.197.127 8.5 6.318 2.181 5.864 6.313 12.154 12.418 18.908 8.169 9.035 14.97 20.934 13.41 23.459-.661 1.07-10.131 1.062-16.672-.015-2.609-.429-4.959-.565-5.223-.3-.264.264.871 2.186 2.523 4.272 4.227 5.337 12.868 7.807 12.977 3.709.019-.704 3.619-3.015 8-5.134 5.8-2.806 7.966-4.37 7.966-5.75 0-1.23-.703-1.897-2-1.897-2.656 0-2.569-2.685.114-3.536 1.394-.443 3.062.029 4.896 1.385l2.781 2.057.589-2.203c.451-1.687-.402-3.185-3.645-6.397-2.329-2.307-4.91-4.902-5.735-5.767-.825-.865-3.21-2.982-5.3-4.704-2.09-1.722-3.579-3.708-3.308-4.413.27-.705-.786-3.047-2.348-5.203-1.562-2.156-3.003-4.775-3.202-5.819-.202-1.058-1.355-2.042-2.602-2.22-2.768-.394-2.837-1.583-.24-4.18 1.1-1.1 2-2.93 2-4.066 0-2.974 5.369-2.35 5.801.674.166 1.16 1.339 2.664 2.607 3.343 1.268.678 4.031 3.942 6.14 7.253 2.109 3.31 5.099 6.953 6.643 8.096 1.545 1.142 2.809 2.535 2.809 3.097 0 .561 2.25 3.166 5 5.789 5.4 5.151 5.864 6.566 3.39 10.341-.988 1.509-1.317 3.136-.851 4.215.417.967.662 2.748.545 3.958-.127 1.308.826 3.104 2.351 4.43 1.62 1.409 2.565 3.27 2.565 5.05 0 3.126-.268 3.282-3.066 1.785-1.466-.785-1.934-.71-1.934.309 0 2.398 2.624 5.084 4.328 4.43 2.082-.798 4.672 2.805 4.672 6.499 0 2.113.589 2.907 2.513 3.39 2.888.724 5.487-.985 5.487-3.608 0-2.407 2.401-3.154 4.653-1.448 2.588 1.961 4.108 1.793 4.847-.537.375-1.182 1.513-2 2.782-2 2.002 0 2.035-.112.482-1.664-1.425-1.426-1.901-1.467-3.322-.288-1.431 1.188-1.849 1.116-3.05-.527-.766-1.047-1.392-2.99-1.392-4.318 0-1.385-1.066-3.254-2.5-4.382-1.375-1.081-2.5-2.623-2.5-3.425 0-2.162 2.826-2.852 4.787-1.169 2.687 2.305 5.213 2.924 5.213 1.277 0-.789.82-1.872 1.822-2.409 2.705-1.447 10.997 3.569 12.736 7.705 1.156 2.748 1.141 3.2-.106 3.2-1.831 0-1.817.394.154 4.204 1.042 2.015 1.403 4.351 1.03 6.652-.41 2.524.046 4.79 1.579 7.86 1.661 3.325 1.883 4.586.97 5.499-1.559 1.559-1.53 5.067.037 4.544.673-.224 1.48-1.497 1.794-2.828.845-3.577 3.194-3.395 5.663.44 1.198 1.861 3.529 3.854 5.179 4.43 2.801.976 3.067.852 4.019-1.878 1.654-4.745 5.612-3.685 9.734 2.606 1.426 2.176 8.892 4.896 10.579 3.854.445-.276.81-1.374.81-2.442 0-2.558 2.984-2.528 6.276.062 1.401 1.101 3.221 1.744 4.045 1.427 2.333-.895 3.018 3.053 1.197 6.892-.881 1.855-1.485 5.097-1.343 7.203.156 2.323-.221 3.99-.959 4.236-.669.223-1.216 1.003-1.216 1.733 0 .731-1.383 2.492-3.073 3.914l-3.073 2.586 2.323.854c1.278.469 7.404 2.102 13.615 3.628 6.21 1.525 11.111 2.954 10.891 3.174-.22.221-6.764-1.12-14.542-2.979-7.777-1.858-14.141-3.029-14.141-2.602 0 .428-1.165 2.162-2.589 3.854-2.197 2.612-3.282 3.077-7.171 3.077-2.52 0-5.293-.588-6.161-1.307-.869-.718-2.929-1.851-4.579-2.516-2.719-1.096-2.823-1.071-1.108.271 1.04.814 2.325 1.624 2.856 1.801.53.177.933 2.918.895 6.092-.048 4.043.653 7.403 2.345 11.227 2.627 5.941 4.701 7.42 7.742 5.521 1.081-.675 2.066-1.084 2.189-.908 5.271 7.491 9.142 20.541 8.035 27.091-.592 3.507-.342 4.238 2.272 6.625 4.369 3.99 7.056 14.529 5.376 21.083-1.225 4.779-1.203 4.871 2.331 9.5 1.962 2.571 3.828 5.877 4.147 7.347.318 1.47 1.628 5.148 2.91 8.173 1.282 3.025 2.882 9.55 3.556 14.5 1.065 7.832 1.012 9.705-.411 14.432-2.179 7.237-2.074 8.72.82 11.613 3.118 3.119 6.594 3.113 11.325-.018 3.643-2.411 3.876-2.436 9.229-1.013 5.24 1.393 5.624 1.362 8.396-.672 2.091-1.534 4.893-2.267 10-2.617 3.902-.268 8.355-1.126 9.895-1.907 1.54-.782 3.602-1.166 4.583-.855 1.231.39 2.118-.169 2.864-1.807 1.306-2.866 7.153-4.119 12.314-2.639 4.711 1.352 4.694 1.357 6.439-2.017 1.23-2.378 2.22-3.007 4.776-3.031 4.102-.04 6.035-2.619 8.719-11.629 1.875-6.291 1.918-5.817.31 3.41-.752 4.311.948 4.181 3.577-.274 2.31-3.916 5.237-5.62 5.954-3.467.251.752 1.189-1.061 2.084-4.031 1.287-4.271 2.144-5.521 4.098-5.982 3.063-.723 3.776-3.693 1.32-5.497-1.011-.743-1.884-2.171-1.94-3.175-.257-4.591-.522-5.229-2.429-5.834-1.688-.535-1.926-1.203-1.41-3.953.386-2.056.183-3.578-.536-4.023-1.51-.933-1.949-.416-3.518 4.15-1.291 3.754-1.322 3.657-2.037-6.426-.399-5.631-1.048-10.238-1.442-10.238-1.369 0-3.78 3.522-4.99 7.289-1.315 4.095-2.119 4.196-8.314 1.044-2.466-1.255-3.12-1.212-5.829.377-3.009 1.765-3.078 1.757-4.972-.571-2.551-3.135-2.423-4.953.44-6.258 1.817-.827 3.057-.716 5.374.482 2.864 1.481 4.265 1.307 4.265-.53 0-.458-.87-.833-1.934-.833s-4.664-1.184-8-2.631l-6.066-2.63v-4.361c0-3.874-.386-4.611-3.469-6.619-3.743-2.437-4.91-6.172-4.992-15.973-.085-10.223 6.873-10.118 12.365.186 1.703 3.194 3.096 6.463 3.096 7.263 0 .8.958 2.312 2.13 3.36 1.171 1.048 3.177 3.553 4.457 5.567 2.673 4.207 10.768 7.838 17.472 7.838 4.205 0 5.045.949 6.382 7.214.464 2.177 1.419 2.937 4.819 3.837 2.332.617 5.365 2.147 6.74 3.4 1.375 1.253 3.4 2.534 4.5 2.848 1.1.313 3.8 1.254 6 2.091 2.2.837 5.856 1.542 8.125 1.566 8.049.086 10.283 1.03 12.842 5.426 1.318 2.265 2.687 5.468 3.042 7.118 1.051 4.875 2.744 7.579 5.706 9.111 3.46 1.789 3.594 3.389.285 3.389-2.983 0-3.003.172-.691 6.258 2.499 6.582 3.407 7.302 6.584 5.22 1.434-.939 2.607-2.106 2.607-2.593 0-.487.655-.885 1.455-.885 3.272 0 2.821 10.93-.965 23.409-1.018 3.353-1.49 9.385-1.49 19.032 0 9.41-.498 15.948-1.492 19.591-2.486 9.109-3.341 14.084-3.906 22.718-.629 9.619.491 10.572 5.78 4.916 4.16-4.449 14.723-25.134 18.085-35.416 2.111-6.458 3.106-8.25 4.58-8.25 2.918 0 8.838-5.782 13.992-13.666 5.992-9.168 8.498-12.334 9.76-12.334.556 0 1.616-1.912 2.356-4.25 1.034-3.268 1.848-4.257 3.524-4.281 1.198-.017 3.034-.804 4.079-1.75 1.045-.945 2.427-1.719 3.071-1.719.644 0 1.171-.9 1.171-2s.456-2 1.013-2c.651 0 .944 6.147.82 17.25-.156 13.925-.544 18.173-2.013 22.037-1.001 2.633-1.82 5.74-1.82 6.905 0 2.055.06 2.064 2 .308 1.1-.995 2-2.415 2-3.155 0-.74.45-1.345 1-1.345 1.681 0 1.117 7.411-1.116 14.645-1.163 3.77-4.097 11.984-6.519 18.253-2.421 6.269-4.277 11.523-4.124 11.677.154.153 2.3-4.178 4.769-9.624 2.47-5.447 4.787-9.914 5.15-9.927 1.451-.053-.463 13.735-2.75 19.812-1.34 3.559-2.264 6.644-2.053 6.854.783.783 8.637-15.589 12.097-25.219 1.971-5.484 4.897-16.363 6.503-24.176 3.824-18.602 6.957-30.066 8.687-31.797 2.087-2.086 6.179-30.279 7.474-51.495 2.004-32.818-.363-71.344-6.236-101.503-2.926-15.027-13.708-52.641-18.926-66.023-2.354-6.037-10.145-22.677-17.314-36.977-9.93-19.805-15.992-30.408-25.448-44.5-17.076-25.452-26.422-36.818-51.638-62.801-11.5-11.85-34.926-32.199-40.408-35.101-1.456-.77-4.898-3.297-7.648-5.614-9.38-7.902-36.597-25.567-28.958-18.794m-28.476 36.402c1.603 2.253 2.418 2.743 2.997 1.806.496-.802.012-1.966-1.287-3.092-3.239-2.809-4.142-2.129-1.71 1.286M367.5 428c-.995 1.1-1.486 2-1.089 2 1.427 0 4.589-2.091 4.589-3.035 0-1.569-1.561-1.108-3.5 1.035m-22.841 2c-1.699 2.877-1.334 3.793.889 2.235.863-.606 1.841-5.235 1.105-5.235-.122 0-1.019 1.35-1.994 3m502.341.468c0 .258 2.697 5.321 5.993 11.25 3.296 5.93 5.996 10.379 6 9.887.009-1.121-10.94-21.605-11.547-21.605a.46.46 0 00-.446.468m-491.497 5.165c-12.262 6.907-13.489 8.552-7.378 9.895 2.88.632 3.063.924 2.552 4.076-.303 1.868-.286 3.396.039 3.396.325 0 3.095-2.363 6.157-5.25 4.434-4.183 5.59-5.919 5.687-8.54.066-1.809-.287-3.541-.785-3.849-.498-.308-.131-1.415.815-2.46 2.285-2.525 2.157-2.476-7.087 2.732m233.997 1.965c-1.903 1.46-1.855 1.5 1 .839 3.707-.859 5.658-2.449 2.95-2.405-1.073.017-2.85.722-3.95 1.566m9.097 2.652c-2.313 2.951-2.745 3.127-4.69 1.918-2.559-1.591-5.134.005-3.172 1.967 1.544 1.544-1.293 5.865-3.85 5.865-1.037 0-1.885.45-1.885 1s.675 1 1.5 1 1.5.502 1.5 1.117c0 .624.882.886 2 .593 1.606-.42 2-.03 2 1.977 0 1.655-.673 2.676-1.989 3.02-2.782.728-1.47 2.293 1.921 2.293 2.984 0 2.965-.093 2.154 10.643-.15 1.995-3.282 2.459-5.737.85-1.717-1.125-2.881-1.279-4.228-.558-1.022.547-2.214.673-2.65.28-.435-.393-.468-.152-.072.535.395.688 1.405 1.25 2.243 1.25 2.639 0 .864 2.371-2.411 3.22-3.728.966-5.213 2.78-2.276 2.78 1.139 0 2.854.417 3.809.927.955.51 2.561 1.185 3.569 1.501 3.595 1.124 1.066 3.039-4.157 3.147-3.066.064-5.881.729-6.922 1.636-.965.84-2.429 1.816-3.254 2.168-.825.352-.001.415 1.832.139 1.832-.275 4.261-.003 5.397.604 1.636.876 2.245.783 2.935-.45.705-1.26 1.441-1.357 3.871-.51 1.65.575 4.09.773 5.421.438 1.332-.334 2.718-.128 3.08.458 1.172 1.897 5.504 2.959 9.477 2.324 3.25-.52 3.926-1.045 4.182-3.251.168-1.447.755-2.692 1.305-2.766 4.203-.565 5.464-1.665 4.85-4.229-.825-3.443-1.149-3.737-2.567-2.319-2.347 2.347-3.684 1.345-3.089-2.317.373-2.3.173-3.5-.582-3.5-.698 0-.925-.897-.577-2.282.315-1.255-.124-3.618-.975-5.25-.851-1.632-1.55-4.133-1.554-5.557-.004-1.789-.78-2.942-2.506-3.729-3.103-1.414-3.197-2.827-.25-3.758 2.734-.865 8.75-5.336 8.75-6.504 0-.464-1.8-1.328-4-1.92-4.794-1.291-5.013-2.413-.956-4.881l3.045-1.851-3.17-.634c-4.586-.917-4.539-.934-7.322 2.616m300.83 6.61c1.61 1.716 3.137 2.91 3.393 2.654.678-.679-1.824-3.452-4.238-4.698-1.578-.815-1.374-.321.845 2.044m-244.614 1.823c.721.289 1.584.253 1.916-.079.332-.332-.258-.568-1.312-.525-1.165.048-1.402.285-.604.604m4 1c.721.289 1.584.253 1.916-.079.332-.332-.258-.568-1.312-.525-1.165.048-1.402.285-.604.604m4 1c.721.289 1.584.253 1.916-.079.332-.332-.258-.568-1.312-.525-1.165.048-1.402.285-.604.604m-91.626 5.389c-.984 1.576-2.131 2-4.794 1.77-3.008-.259-3.787.153-5.545 2.928-1.842 2.911-1.876 3.23-.339 3.23 1.144 0 1.505.521 1.098 1.582-.334.87-.607 1.77-.607 2 0 .23-.949.418-2.109.418-1.931 0-6.833 3.653-6.874 5.122-.033 1.216 8.192 1.949 9.518.849.948-.787 2.487-.773 5.538.049 4.046 1.089 4.324 1.017 6.522-1.691 1.263-1.556 3.098-4.291 4.078-6.079.98-1.788 2.528-3.25 3.441-3.25 2.066 0 3.102-5.576 1.311-7.062-.678-.563-2.353-.743-3.72-.4-1.387.348-2.782.146-3.155-.457-1.051-1.701-2.951-1.269-4.363.991M522.23 585.751c-1.047 1.512-2.21 3.593-2.584 4.625-.576 1.588-1.443 1.802-5.673 1.395l-4.994-.479-1.725 4.857-1.726 4.857-4.618-.612c-4.309-.572-4.762-.41-6.776 2.417-1.186 1.667-3.775 6.438-5.753 10.602-3.377 7.11-3.756 7.533-6.238 6.938-1.454-.348-2.822-.786-3.042-.974-.219-.187-2.1 1.196-4.179 3.074-3.474 3.139-9.088 5.53-13.017 5.543-.878.003-6.232 4.772-11.9 10.597-9.062 9.315-10.646 10.542-13.133 10.177-2.603-.382-2.955-.035-4.412 4.352-2.021 6.084-4.701 9.473-8.184 10.347-3.147.79-4.239 2.116-4.261 5.175-.01 1.417.775 2.34 2.323 2.728 1.285.323 3.512 1.511 4.948 2.64l2.61 2.054-2.395 3.529c-2.35 3.464-4.322 9.148-6.605 19.039-.857 3.712-1.847 5.377-3.895 6.552-2.6 1.493-2.784 2.087-3.47 11.239-.684 9.126-.581 9.951 1.853 14.87 1.418 2.864 4.694 7.853 7.281 11.087 4.333 5.417 4.683 6.268 4.443 10.795-.241 4.534.025 5.177 3.43 8.296 2.031 1.86 5.031 3.936 6.667 4.614 2.796 1.158 2.937 1.48 2.352 5.383-.592 3.945-.377 4.407 4.309 9.295 5.129 5.35 10.611 9.227 13.055 9.233.782.002 2.251-.747 3.265-1.664 1.724-1.56 2.47-1.527 11.555.518 7.851 1.767 10.119 2.696 11.831 4.843 1.774 2.225 3.102 2.728 8.162 3.094 5.14.372 6.506.095 9.135-1.848 2.91-2.152 3.369-2.208 7.861-.957 2.623.73 8.247 1.237 12.496 1.125 10.182-.268 11.456.499 12.319 7.409.907 7.254 2.58 8.474 16.51 12.043 6.143 1.574 11.398 3.458 11.678 4.187 1.108 2.888-11.843 32.922-13.701 31.774-.568-.351-1.49-.355-2.05-.009-.589.364.46 2.356 2.492 4.73 4.582 5.352 7.271 12.721 9.613 26.336 1.048 6.093 2.524 13.135 3.281 15.649.811 2.695 1.024 5.126.519 5.923-1.231 1.942-1.083 7.255.238 8.576 1.512 1.512-1.96 8.66-7.011 14.437-7.66 8.763-11.133 14.096-12.709 19.516-1.545 5.315-1.53 5.662.351 8.206 1.356 1.833 1.817 3.667 1.487 5.914-.358 2.436.208 4.245 2.247 7.188 2.568 3.705 2.691 4.383 2.124 11.723-.331 4.285-.869 10.09-1.195 12.9-.655 5.64 1.753 20.55 4.254 26.339.844 1.954 1.622 5.722 1.73 8.375.172 4.248-.108 4.984-2.354 6.173-2.226 1.179-2.327 1.436-.799 2.034.962.376 1.75 1.706 1.75 2.955 0 1.248.563 2.723 1.25 3.277 1.784 1.437 7.437 2.619 13.25 2.77 2.75.071 7.56.49 10.689.929 3.129.44 6.504.46 7.5.044.996-.415 3.986-.663 6.645-.551 2.968.125 5.478-.34 6.5-1.203.916-.773 3.691-1.979 6.166-2.679 7.378-2.088 18.275-7.497 22.398-11.117 2.122-1.863 4.654-5.244 5.627-7.514l1.769-4.127 10.606-2.811c11.898-3.153 11.452-2.645 13.163-15.003.381-2.75 1.072-5.734 1.536-6.631.509-.984 6.703-3.511 15.622-6.375 22.104-7.098 30.486-11.899 33.497-19.188A872.894 872.894 0 01712.603 957c1.836-4.243 2.765-8.033 2.675-10.913-.08-2.55.888-7.139 2.292-10.869 1.337-3.551 2.43-7.478 2.43-8.727 0-3.058 7.358-12.868 14.28-19.037 7.666-6.833 17.855-12.706 39.598-22.825 21.152-9.844 29.734-14.728 38.068-21.664 9.194-7.651 18.96-22.441 17.437-26.409-.72-1.877-5.564-2.043-12.037-.413-3.734.94-5.9.832-12.193-.608-4.209-.964-8.609-1.922-9.777-2.131-3.923-.7-6.354-3.652-6.741-8.186-.201-2.355-.651-4.567-1-4.916-.349-.35-.635-1.945-.635-3.545 0-2.082-2.273-5.936-7.991-13.552-14.168-18.87-17.953-28.751-14.587-38.081.868-2.406 1.578-5.825 1.578-7.597 0-1.772-2.465-12.855-5.478-24.629-6.569-25.672-10.522-44.624-10.522-50.45 0-3.987-.346-4.532-5.088-8.013-4.642-3.407-9.898-4.782-11.636-3.044-.719.719-8.796-3.436-21.534-11.076-11.748-7.046-25.498-13.741-30.282-14.744l-3.04-.638-2.216 7.534-2.216 7.533h-3.674c-3.048 0-4.368-.743-7.744-4.359-2.239-2.398-5.195-4.699-6.57-5.115-8.068-2.438-11.653-4.677-12.869-8.04-1.487-4.113-5.264-6.977-12.362-9.374-3.52-1.189-5.656-2.582-6.436-4.196-1.27-2.63-3.544-22.765-2.721-24.097.278-.45 1.829-.819 3.447-.819 3.908 0 3.731-1.973-.42-4.66-4.505-2.917-20.477-5.061-26.068-3.499-3.852 1.075-4.025 1.008-8.708-3.372-5.26-4.921-8.3-5.567-14.33-3.047-2.957 1.235-4.148 1.227-9.073-.059-5.265-1.374-6.304-1.332-14.536.601l-8.865 2.081-6.461-2.087c-3.553-1.148-7.017-2.757-7.697-3.577-2.769-3.336-4.671-3.516-6.671-.63M207.6 588.6c-.356.927-.422 1.911-.147 2.186.275.275.791-.259 1.147-1.186.356-.927.422-1.911.147-2.186-.275-.275-.791.259-1.147 1.186m-.521 4.983c.048 1.165.285 1.402.604.605.289-.722.253-1.585-.079-1.917-.332-.332-.568.258-.525 1.312m-1.064 4.042c-.008 1.169-.296 3.531-.64 5.25-.495 2.474-.287 3.125 1 3.125 1.214 0 1.621-.949 1.61-3.75-.009-2.062-.452-4.425-.985-5.25-.793-1.227-.972-1.114-.985.625m1.54 16.542c-1.114 3.33-2.541 9.472-2.518 10.833.023 1.289.198 1.277 1.245-.084 1.294-1.683 8.216-1.538 9.286.194 1.06 1.715 2.432.867 2.432-1.503 0-2.471-2.233-4.069-5.183-3.709-1.218.148-1.77-.685-2-3.02-.326-3.311-2.466-5.09-3.262-2.711m-14.791 54.583c-.851.962-1.877 3.765-2.282 6.228-.404 2.463-1.32 5.388-2.034 6.5-2.032 3.161-2.746 8.905-2.923 23.509-.091 7.432-.733 17.563-1.428 22.513-2.349 16.725-.241 43.505 5.546 70.439 5.971 27.795 12.004 46.133 18.96 57.636 1.97 3.259 5.499 11.325 7.842 17.925 9.716 27.372 22.61 54.485 36.707 77.192 16.588 26.718 33.799 48.002 60.854 75.255 6.152 6.197 22.821 20.69 25.93 22.545 1.842 1.098-11.875-11.891-18.436-17.459-2.75-2.333-6.125-5.749-7.5-7.591-4.378-5.865-10.301-12.777-15.787-18.423-2.929-3.015-4.831-5.646-4.228-5.847.603-.201-.496-2.311-2.444-4.687-4.105-5.01-4.239-5.485-1.541-5.485 2.437 0 2.435.154.094-5.167-2-4.548-4.072-7.422-10.471-14.528-4.149-4.606-3.427-5.698 1.405-2.126 1.621 1.198 3.239 1.887 3.596 1.53.357-.356-.789-4.985-2.547-10.286-2.912-8.78-3.39-13.114-1.038-9.394 1.806 2.855.983-.998-2.539-11.893-1.925-5.954-3.5-12.892-3.5-15.416 0-5.928 1.556-10.104 3.487-9.363.803.308 1.866-.165 2.362-1.052.754-1.347 1.56-1.445 4.911-.594l4.009 1.018 1.258-7.615c1.635-9.905 1.375-29.738-.508-38.614-.816-3.85-1.492-8.044-1.502-9.32-.019-2.541 5.464-11.18 7.096-11.18.559 0 2.617-3.463 4.573-7.697 3.175-6.871 3.502-8.345 3.05-13.75-.742-8.875-3.168-14.105-7.545-16.265-2.818-1.391-4.352-3.283-6.906-8.519-2.626-5.384-3.833-6.843-6.034-7.295-6.966-1.43-10.062-2.607-11.743-4.465-2.143-2.368-4.508-2.635-4.508-.509 0 1.774-.482 1.847-3.066.465-2.164-1.159-2.609-4.563-.684-5.234.73-.255-1.661-3.268-5.75-7.245l-7-6.808-.313 3.161c-.234 2.352-.809 3.161-2.25 3.161-2.273 0-2.672-3.85-.723-6.971 1.026-1.643.844-2.338-1.174-4.487-3.061-3.258-3.659-3.198-4.386.438-.429 2.143-1.025 2.815-2.125 2.393-2.138-.821-1.905-3.723.471-5.873 1.525-1.38 2-3.08 2-7.155 0-2.94-.45-5.345-1-5.345s-1-2.512-1-5.582c0-4.046-.857-7.556-3.113-12.75-3.647-8.399-6.148-11.444-9.741-11.863-2.285-.267-3.152-1.595-6.994-10.717-2.412-5.727-4.617-12.14-4.901-14.25-.338-2.522-1.03-3.838-2.019-3.838-1.201 0-1.383-.882-.904-4.375.563-4.109.455-4.375-1.78-4.375-1.486 0-2.564.704-2.87 1.875-.714 2.729-2.678 2.297-2.678-.59 0-1.441-.83-2.909-2-3.535-1.209-.647-2.028-2.145-2.07-3.785-.039-1.493-.406-3.571-.817-4.618-.546-1.393-1.37.418-3.072 6.75-1.279 4.759-2.547 8.653-2.817 8.653-.694 0 .402-13.129 1.272-15.25.395-.962.29-1.75-.234-1.75s-1.648.788-2.498 1.75M185 680.5c0 1.375.45 2.5 1 2.5s1-1.125 1-2.5-.45-2.5-1-2.5-1 1.125-1 2.5M887.158 766c0 1.375.227 1.938.504 1.25.278-.687.278-1.812 0-2.5-.277-.687-.504-.125-.504 1.25m-1 5c0 1.375.227 1.938.504 1.25.278-.687.278-1.812 0-2.5-.277-.687-.504-.125-.504 1.25m-1.079 4.583c.048 1.165.285 1.402.604.605.289-.722.253-1.585-.079-1.917-.332-.332-.568.258-.525 1.312m-1 4c.048 1.165.285 1.402.604.605.289-.722.253-1.585-.079-1.917-.332-.332-.568.258-.525 1.312m74.266 100.167c-.326.962-1.887 4.486-3.469 7.829-1.582 3.343-2.876 7.008-2.876 8.143 0 3.01 2.867 3.744 3.937 1.009.48-1.227 1.402-3.581 2.05-5.231 1.137-2.899 2.209-13.5 1.365-13.5-.228 0-.681.788-1.007 1.75m44.291 7c-.839 2.612-2.017 6.775-2.618 9.25-1.238 5.098-2.455 8.181-9.076 23-7.179 16.068-6.76 17.017.884 2 4.412-8.669 7.304-15.75 8.08-19.788.665-3.459 1.894-8.184 2.731-10.5 1.727-4.783 2.613-8.712 1.963-8.712-.242 0-1.126 2.138-1.964 4.75m-17.543 28.75c-.641 3.3-1.843 7.518-2.672 9.374-.829 1.855-1.283 3.597-1.01 3.87.273.273-.771 3.03-2.32 6.126-1.549 3.097-3.383 7.43-4.075 9.63-.692 2.2-2.08 5.364-3.084 7.032C969.639 955.34 961.188 972 961.55 972c.327 0 10.631-12.905 11.761-14.731.447-.721.963-2.089 1.148-3.04.186-.951 1.582-4.429 3.103-7.729 6.296-13.66 11.029-30.739 9.589-34.603-.777-2.086-1.044-1.619-2.058 3.603m-228.83 59.451c-.672 1.076-3.015 2.494-5.207 3.15-2.192.657-4.979 2.253-6.195 3.547-1.215 1.293-2.736 2.352-3.38 2.352-.644 0-2.026.944-3.07 2.099-1.952 2.156-2.174 2.162-12.115.291-2.888-.544-3.704-.082-8.277 4.688-2.791 2.91-5.321 6.446-5.624 7.857-.924 4.303-2.646 7.065-4.408 7.065-2.224 0-11.54 9.003-12.496 12.076-.414 1.333-1.658 3.708-2.764 5.277-1.665 2.363-1.771 3.005-.619 3.735.766.485 1.906.888 2.535.897.629.008 1.386.648 1.682 1.421.797 2.074 6.165 2.918 10.167 1.597 2.056-.679 5.017-3.008 7.182-5.65 2.025-2.472 5.402-5.372 7.504-6.444 2.102-1.072 3.822-2.358 3.822-2.858s1.516-2.516 3.368-4.48c2.656-2.816 4.133-3.571 6.987-3.571 3.155 0 3.796-.426 5.01-3.332.766-1.833 2.553-4.245 3.972-5.361 1.418-1.116 3.083-3.104 3.7-4.418.616-1.314 2.492-3.289 4.168-4.389 4.21-2.763 9.67-12.823 8.224-15.154-1.552-2.501-2.778-2.617-4.166-.395m200.691 5.135c-1.587 2.966-.781 3.156 1.343.316.988-1.321 1.341-2.402.785-2.402-.556 0-1.514.939-2.128 2.086" fill="undefined" fill-rule="evenodd"/></svg>